<svg xmlns="http://www.w3.org/2000/svg" width="13" height="14" viewBox="0 0 13 14"><path fill="#252525" d="M5.742 6.22q0 .28.25.55t.605.53.707.575.602.813.25 1.11q0 .702-.375 1.35-.562.954-1.647 1.403T3.805 13q-1.03 0-1.926-.324T.54 11.602q-.29-.47-.29-1.023 0-.634.348-1.173t.926-.898q1.023-.642 3.156-.782-.25-.328-.37-.578t-.122-.57q0-.28.164-.664-.36.03-.53.03-1.157 0-1.95-.753t-.793-1.91q0-.64.28-1.242t.773-1.022Q2.735.502 3.56.252t1.698-.25h3.266L7.446.69H6.423q.578.492.875 1.04t.297 1.25q0 .562-.19 1.01t-.462.728-.543.508-.465.48-.19.516zm-1.14-.75q.297 0 .61-.13T5.726 5q.414-.445.414-1.242 0-.453-.132-.977t-.38-1.01-.66-.81-.913-.32q-.328 0-.645.152t-.512.41q-.367.46-.367 1.25 0 .36.08.762t.245.805.406.722.587.523.754.203zm.015 6.82q.453 0 .87-.103t.774-.305.57-.57.216-.852q0-.195-.055-.383T6.88 9.75t-.21-.325-.23-.273-.302-.27-.285-.227-.323-.234-.285-.202q-.125-.016-.375-.016-.414 0-.82.055t-.84.195-.758.36-.536.58-.21.825q0 .547.272.965t.715.648.93.344.997.113zm6.328-6.845h1.664v.844h-1.665V8h-.82V6.29H8.47v-.845h1.655V3.75h.82v1.695z"/></svg>