<svg xmlns="http://www.w3.org/2000/svg" width="114.25" height="36.375" viewBox="0 0 114.25 36.375"><g fill="#424142"><path d="M.864 2.65c-.5-1.45.15-2.4 1.7-2.4h2.65c1.2 0 2 .55 2.35 1.75l7.25 21.4c.65 2.05 1.35 5.2 1.35 5.2h.1s.65-3.15 1.35-5.2L24.964 2c.3-1.2 1.1-1.75 2.3-1.75h2.55c1.55 0 2.2.95 1.7 2.4l-11.35 31.452c-.4 1.15-1.15 1.65-2.35 1.65h-3.2c-1.2 0-1.95-.5-2.35-1.65L.865 2.65zM36.263 2.35c0-1.35.7-2.1 2.05-2.1h2.3c1.35 0 2.05.75 2.05 2.1v31.303c0 1.4-.7 2.1-2.05 2.1h-2.3c-1.35 0-2.05-.7-2.05-2.1V2.35zM50.863 2.35c0-1.35.7-2.1 2.05-2.1h10.05c10.95 0 18.102 6.5 18.102 17.702s-7.15 17.8-18.1 17.8H52.912c-1.35 0-2.05-.7-2.05-2.1v-31.3zm11.75 27.852c7.2 0 11.8-4.25 11.8-12.25 0-7.9-4.7-12.15-11.8-12.15h-5.35v24.4h5.35zM94.713 1.95c.4-1.15 1.15-1.7 2.35-1.7h3.2c1.2 0 2 .55 2.35 1.7l11.103 31.402c.5 1.45-.15 2.4-1.7 2.4h-2.3c-1.2 0-2-.55-2.35-1.7l-2.5-7.4H92.412l-2.45 7.35c-.35 1.2-1.15 1.75-2.35 1.75h-2.3c-1.55 0-2.2-.95-1.7-2.4l11.1-31.402zm8.55 19.45l-3.15-9.5c-.6-2-1.398-5.5-1.398-5.5h-.1s-.8 3.5-1.4 5.5l-3.2 9.5h9.25z"/></g></svg>