<svg xmlns="http://www.w3.org/2000/svg" width="10" height="14" viewBox="0 0 10 14"><path fill="#252525" d="M0 4.664q0-.844.293-1.59t.81-1.3T2.288.81t1.444-.61T5.312 0Q6.546 0 7.61.52t1.726 1.512T10 4.274q0 .75-.148 1.47t-.47 1.382-.78 1.168T7.47 9.1t-1.478.3q-.53 0-1.055-.25t-.75-.688q-.078.305-.22.88t-.183.74-.16.556-.203.555-.25.488-.358.606-.484.676l-.11.04-.07-.08q-.116-1.226-.116-1.468 0-.72.168-1.613t.52-2.245.406-1.586q-.25-.51-.25-1.32 0-.65.406-1.22t1.03-.57q.478 0 .743.316t.266.8q0 .517-.343 1.493t-.344 1.46q0 .492.352.816t.852.324q.43 0 .797-.195t.613-.53.438-.743.297-.863.156-.868.05-.777q0-1.352-.854-2.105t-2.23-.754q-1.563 0-2.61 1.012T1.45 4.854q0 .344.098.664t.21.508.212.355.098.24q0 .218-.117.57t-.29.35q-.016 0-.133-.022Q1.13 7.4.82 7.08t-.477-.738-.254-.844-.087-.832z"/></svg>