<?xml version="1.0" encoding="utf-8"?>
<!-- Generator: Adobe Illustrator 16.0.0, SVG Export Plug-In . SVG Version: 6.00 Build 0)  -->
<!DOCTYPE svg PUBLIC "-//W3C//DTD SVG 1.1//EN" "http://www.w3.org/Graphics/SVG/1.1/DTD/svg11.dtd">
<svg version="1.1" id="Layer_1" xmlns="http://www.w3.org/2000/svg" xmlns:xlink="http://www.w3.org/1999/xlink" x="0px" y="0px"
	 width="114.25px" height="36.375px" viewBox="0 0 114.25 36.375" enable-background="new 0 0 114.25 36.375" xml:space="preserve">
<g>
	<path fill="#424142" d="M0.864,2.65c-0.5-1.45,0.15-2.4,1.7-2.4h2.65c1.2,0,2,0.55,2.35,1.75l7.25,21.401
		c0.65,2.05,1.35,5.2,1.35,5.2h0.1c0,0,0.65-3.15,1.35-5.2L24.965,2c0.3-1.2,1.1-1.75,2.3-1.75h2.55c1.55,0,2.2,0.95,1.7,2.4
		L20.165,34.102c-0.4,1.15-1.15,1.65-2.35,1.65h-3.2c-1.2,0-1.95-0.5-2.35-1.65L0.864,2.65z"/>
	<path fill="#424142" d="M36.263,2.351c0-1.35,0.7-2.1,2.05-2.1h2.3c1.35,0,2.05,0.75,2.05,2.1v31.302c0,1.4-0.7,2.1-2.05,2.1h-2.3
		c-1.35,0-2.05-0.7-2.05-2.1V2.351z"/>
	<path fill="#424142" d="M50.863,2.351c0-1.35,0.7-2.1,2.05-2.1h10.051c10.95,0,18.101,6.5,18.101,17.701
		s-7.15,17.801-18.101,17.801H52.913c-1.35,0-2.05-0.7-2.05-2.1V2.351z M62.613,30.202c7.201,0,11.801-4.25,11.801-12.251
		c0-7.9-4.7-12.15-11.801-12.15h-5.35v24.401H62.613z"/>
	<path fill="#424142" d="M94.713,1.95c0.4-1.15,1.15-1.7,2.351-1.7h3.2c1.2,0,2,0.55,2.35,1.7l11.102,31.402
		c0.5,1.45-0.15,2.4-1.7,2.4h-2.301c-1.2,0-2-0.55-2.35-1.7l-2.5-7.4H92.413l-2.45,7.351c-0.35,1.2-1.15,1.75-2.35,1.75h-2.301
		c-1.55,0-2.2-0.95-1.7-2.4L94.713,1.95z M103.264,21.401l-3.15-9.5c-0.6-2-1.399-5.5-1.399-5.5h-0.101c0,0-0.8,3.5-1.4,5.5
		l-3.199,9.5H103.264z"/>
</g>
</svg>
