<svg xmlns="http://www.w3.org/2000/svg" width="16" height="14" viewBox="0 0 16 14"><path fill="#252525" d="M14.438 2.648h-3.992v.97h3.992v-.97zm-1.97 3.33q-.702 0-1.14.41T10.844 7.5h3.188q-.14-1.523-1.563-1.523zm.126 4.57q.492 0 .953-.25t.594-.68h1.728q-.78 2.397-3.336 2.397-1.672 0-2.66-1.03t-.988-2.712q0-1.625 1.02-2.7t2.63-1.073q1.077 0 1.878.53t1.195 1.4.395 1.936q0 .133-.016.367h-5.14q0 .867.448 1.34t1.3.473zm-10.43-.392h2.313q1.602 0 1.602-1.305 0-1.405-1.556-1.405h-2.36v2.71zm0-4.195H4.36q.608 0 .964-.284t.355-.887q0-1.126-1.485-1.126h-2.03V5.96zM0 1.985h4.64q.68 0 1.212.11t.988.37.703.754.246 1.203q0 1.415-1.345 2.056.89.25 1.344.898t.452 1.594q0 .586-.19 1.066t-.517.81-.77.554-.945.328-1.047.102H0V1.984z"/></svg>