<svg xmlns="http://www.w3.org/2000/svg" width="14" height="14" viewBox="0 0 14 14"><path fill="#252525" d="M4.648 11.828q0-.78-1.29-.78-1.233 0-1.233.812 0 .79 1.344.79 1.18 0 1.18-.82zm-.46-5.898q0-.477-.234-.797t-.695-.32q-.97 0-.97 1.133Q2.29 7 3.26 7q.93 0 .93-1.07zm2.1-2.532v1.578q-.28.094-.616.172.125.336.125.656 0 .992-.57 1.69t-1.54.88q-.31.062-.464.21t-.152.454q0 .242.177.402t.453.25.613.172.672.2.613.292.453.5.177.77Q6.227 14 3.39 14q-.538 0-1.015-.1t-.906-.32-.685-.64-.254-.996q0-1.29 1.423-1.758v-.03q-.523-.32-.523-.985 0-.85.492-1.07v-.03q-.563-.187-.934-.848T.618 5.93q0-1.087.74-1.81t1.837-.723q.75 0 1.39.367.767 0 1.704-.367zm2.485 6.883H7.04q.03-.35.03-1.046V4.476q0-.734-.03-1h1.733q-.03.258-.03.97v4.788q0 .695.03 1.047zm4.696-1.733v1.53q-.556.306-1.36.306-.484 0-.836-.156t-.547-.39-.31-.61-.144-.72-.03-.804V4.96h.015v-.03q-.055 0-.148-.008t-.14-.008q-.165 0-.462.047V3.478h.75v-.594q0-.422-.047-.695h1.774q-.047.32-.047 1.29h1.336V4.96q-.117 0-.34-.015T12.6 4.93h-.663v2.85q0 1.024.68 1.024.477 0 .852-.258zm-4.5-7.4q0 .454-.306.794t-.75.34q-.453 0-.766-.34t-.312-.792q0-.46.31-.805T7.915 0q.452 0 .753.347t.3.8z"/></svg>