<svg xmlns="http://www.w3.org/2000/svg" width="12" height="14" viewBox="0 0 12 14"><path fill="#252525" d="M12 7q0 1.96-1.145 3.527t-2.957 2.168q-.21.04-.31-.055t-.097-.234v-1.648q0-.758-.405-1.11.445-.046.8-.14t.735-.305.633-.52.414-.82.16-1.176q0-.945-.617-1.61.29-.71-.062-1.593-.22-.07-.633.086t-.72.344L7.5 4.1Q6.77 3.9 6 3.9T4.5 4.1q-.126-.085-.333-.21t-.652-.3-.672-.106q-.344.883-.055 1.594-.617.664-.617 1.61 0 .663.16 1.17t.41.82.63.524.734.305.8.14q-.31.282-.382.806-.164.078-.352.117t-.445.04-.512-.17-.434-.487q-.15-.25-.38-.406t-.387-.187l-.156-.023q-.164 0-.227.035t-.04.09.07.11.103.093l.055.04q.172.077.34.296t.246.4l.078.18q.102.296.344.48t.523.233.542.055.434-.027l.18-.03q0 .297.004.695t.004.422q0 .14-.102.234t-.312.056q-1.812-.602-2.957-2.168T-.002 7q0-1.632.805-3.01t2.184-2.185T6 1t3.01.805 2.185 2.184T12 7z"/></svg>