<svg xmlns="http://www.w3.org/2000/svg" width="12" height="14" viewBox="0 0 12 14"><path fill="#252525" d="M11.695 6.46V8.01q-.79.18-1.547.18-.508 1.062-1.293 2.117T7.437 11.99t-1 .83q-.625.353-1.266-.022-.218-.133-.472-.34t-.664-.652-.8-1.004-.84-1.438-.825-1.906T.853 5t-.55-3.046h2.21q.203 1.703.547 3.113t.817 2.477.95 1.84 1.093 1.523q1.32-1.32 2.242-3.172-1.11-.563-1.742-1.72t-.633-2.6q0-1.5.813-2.458T8.82 0q1.39 0 2.132.824t.742 2.324q0 1.242-.453 2.234-.054.008-.15.023t-.36.016-.492-.046-.484-.2-.395-.4q.24-.806.24-1.44 0-.68-.226-1.03t-.617-.352q-.414 0-.664.387t-.25 1.097q0 1.453.82 2.293t2.086.84q.483 0 .944-.11z"/></svg>